<svg width="480" height="287" viewBox="0 0 480 287" fill="none" xmlns="http://www.w3.org/2000/svg">
<g clip-path="url(#clip0_2_5)">
<path d="M367.499 283.754C361.354 278.561 357.621 270.358 358.6 262.371C359.579 254.385 365.642 247.043 373.507 245.347C381.371 243.651 390.337 248.346 392.725 256.029C394.04 241.216 395.555 225.782 403.43 213.167C410.56 201.745 422.911 193.571 436.295 192.109C449.68 190.647 463.773 196.17 472.12 206.735C480.468 217.301 482.512 232.661 476.665 244.791C472.359 253.726 464.424 260.376 456.11 265.787C429.246 283.122 397.025 290.171 365.377 285.638L367.499 283.754Z" fill="#EEEEEE"/>
<path d="M458.884 196.476C447.84 205.472 437.708 215.534 428.635 226.516C414.436 243.643 402.946 262.846 394.565 283.456C393.952 284.959 396.393 285.614 397 284.127C410.712 250.632 432.603 221.11 460.67 198.261C461.93 197.235 460.134 195.458 458.884 196.476Z" fill="white"/>
<path d="M154.52 282.343C162.96 275.211 168.087 263.943 166.743 252.973C165.398 242.004 157.071 231.92 146.268 229.591C135.466 227.261 123.153 233.709 119.872 244.262C118.066 223.916 115.985 202.718 105.169 185.392C95.3753 169.703 78.4123 158.477 60.0282 156.469C41.6442 154.461 22.2881 162.046 10.8227 176.557C-0.642812 191.069 -3.45008 212.166 4.58003 228.827C10.4955 241.1 21.394 250.234 32.8128 257.665C69.2429 281.372 114.434 291.259 157.435 284.93" fill="#EEEEEE"/>
<path d="M29.0023 162.466C44.1714 174.823 58.0875 188.643 70.5493 203.726C83.013 218.794 93.9859 235.035 103.314 252.222C108.528 261.863 113.212 271.781 117.345 281.933C118.187 283.998 114.834 284.897 114.001 282.855C106.681 264.958 97.6243 247.821 86.9615 231.69C76.3504 215.618 64.2055 200.614 50.6974 186.887C43.0571 179.127 34.9959 171.793 26.5504 164.918C24.8194 163.509 27.2855 161.068 29.0023 162.466Z" fill="white"/>
<path d="M344.552 286.372H143.172V79.7316C143.172 35.7674 178.936 0 222.896 0H264.828C308.788 0 344.552 35.7674 344.552 79.7316V286.372Z" fill="#F2F2F2"/>
<path d="M302.621 286.372H143.172V79.7317C143.128 62.8856 148.462 46.4653 158.398 32.8614C158.764 32.3622 159.129 31.8694 159.506 31.382C164.312 25.0786 170.03 19.5272 176.474 14.9112C176.838 14.6464 177.203 14.3861 177.574 14.1258C182.965 10.3944 188.798 7.34404 194.938 5.04416C195.303 4.90594 195.674 4.76746 196.045 4.63463C201.598 2.65269 207.355 1.29507 213.208 0.586843C213.571 0.537266 213.944 0.498471 214.316 0.459676C220.021 -0.150296 225.774 -0.150296 231.478 0.459676C231.849 0.498471 232.222 0.537261 232.589 0.587374C238.441 1.29565 244.196 2.6531 249.748 4.63465C250.119 4.76748 250.491 4.90596 250.856 5.04444C256.921 7.31531 262.684 10.3202 268.018 13.9919C268.389 14.2466 268.76 14.5068 269.125 14.7671C272.737 17.3454 276.129 20.2178 279.268 23.3549C281.785 25.8712 284.13 28.5535 286.288 31.3837C286.664 31.8694 287.029 32.3622 287.395 32.8607C297.33 46.4646 302.665 62.8853 302.621 79.7317V286.372Z" fill="#CCCCCC"/>
<path d="M289.655 193.949C294.531 193.949 298.483 189.997 298.483 185.121C298.483 180.245 294.531 176.292 289.655 176.292C284.78 176.292 280.828 180.245 280.828 185.121C280.828 189.997 284.78 193.949 289.655 193.949Z" fill="#FF8900"/>
<path d="M328.055 280.182H321.29L318.072 254.09L328.056 254.091L328.055 280.182Z" fill="#FFB8B8"/>
<path d="M316.459 278.25H329.504V286.464H308.245C308.245 285.385 308.458 284.317 308.871 283.32C309.283 282.324 309.888 281.418 310.651 280.655C311.414 279.893 312.319 279.288 313.316 278.875C314.312 278.462 315.38 278.25 316.459 278.25Z" fill="#2F2E41"/>
<path d="M361.71 280.182H354.946L351.727 254.09L361.711 254.091L361.71 280.182Z" fill="#FFB8B8"/>
<path d="M350.114 278.25H363.159V286.464H341.901C341.901 285.385 342.113 284.317 342.526 283.32C342.939 282.324 343.544 281.418 344.306 280.655C345.069 279.893 345.974 279.288 346.971 278.875C347.967 278.462 349.035 278.25 350.114 278.25Z" fill="#2F2E41"/>
<path d="M294.123 186.87C293.636 186.153 293.313 185.338 293.175 184.482C293.038 183.627 293.089 182.751 293.326 181.918C293.564 181.084 293.981 180.313 294.548 179.658C295.116 179.004 295.82 178.481 296.611 178.128L319.605 114.747L330.919 120.922L304.666 181.491C305.171 182.86 305.156 184.367 304.625 185.725C304.094 187.084 303.082 188.201 301.783 188.864C300.483 189.527 298.986 189.69 297.574 189.322C296.162 188.955 294.934 188.082 294.123 186.87Z" fill="#FFB8B8"/>
<path d="M358.255 198.779C357.503 198.348 356.855 197.758 356.356 197.049C355.857 196.34 355.52 195.531 355.368 194.678C355.216 193.825 355.252 192.949 355.475 192.111C355.698 191.274 356.102 190.496 356.658 189.831L349.535 122.785L362.411 123.374L365.372 189.322C366.426 190.331 367.073 191.691 367.191 193.145C367.31 194.6 366.891 196.047 366.013 197.212C365.136 198.378 363.862 199.181 362.432 199.47C361.002 199.759 359.515 199.513 358.255 198.779Z" fill="#FFB8B8"/>
<path d="M337.714 103.008C345.198 103.008 351.264 96.9401 351.264 89.4554C351.264 81.9707 345.198 75.9032 337.714 75.9032C330.23 75.9032 324.163 81.9707 324.163 89.4554C324.163 96.9401 330.23 103.008 337.714 103.008Z" fill="#FFB8B8"/>
<path d="M358.168 183.531H317.315L317.364 183.213C317.437 182.738 324.645 135.518 319.329 120.07C318.795 118.552 318.842 116.89 319.461 115.405C320.079 113.919 321.225 112.715 322.677 112.023C330.276 108.445 344.861 104.038 357.171 114.732C358.983 116.332 360.397 118.331 361.303 120.571C362.209 122.812 362.581 125.232 362.39 127.641L358.168 183.531Z" fill="#FF8900"/>
<path d="M325.161 142.496L306.768 138.765L315.39 118.332C315.906 116.354 317.185 114.66 318.948 113.623C320.711 112.587 322.813 112.292 324.793 112.803C326.773 113.314 328.469 114.59 329.51 116.35C330.551 118.111 330.851 120.212 330.345 122.194L325.161 142.496Z" fill="#FF8900"/>
<path d="M348.717 149.425L347.612 124.076C346.773 119.311 349.501 114.806 353.696 114.07C357.892 113.336 361.989 116.641 362.831 121.441L366.988 145.128L348.717 149.425Z" fill="#FF8900"/>
<path d="M356.809 180.496C363.382 205.534 364.1 237.367 362.326 272.091L353.499 270.987L337.499 204.774L328.671 272.091L318.74 271.539C315.773 235.106 312.884 203.828 317.636 183.255L356.809 180.496Z" fill="#2F2E41"/>
<path d="M346.642 99.9289C344.114 102.622 339.42 101.176 339.09 97.4971C339.064 97.2115 339.066 96.924 339.096 96.6387C339.266 95.009 340.207 93.5294 339.982 91.8087C339.931 91.3804 339.771 90.9723 339.518 90.623C337.504 87.9252 332.775 91.8297 330.874 89.3874C329.708 87.8899 331.078 85.5321 330.184 83.8583C329.003 81.6492 325.506 82.739 323.313 81.5292C320.872 80.1831 321.018 76.4389 322.625 74.1615C324.584 71.3841 328.018 69.9021 331.41 69.6885C334.802 69.4749 338.17 70.3918 341.337 71.626C344.935 73.0282 348.502 74.9662 350.716 78.1301C353.409 81.9777 353.668 87.1505 352.321 91.6495C351.502 94.3864 348.707 97.7297 346.642 99.9289Z" fill="#2F2E41"/>
<path d="M463.438 286.727H56.1035C55.9296 286.726 55.763 286.657 55.6402 286.534C55.5174 286.411 55.4485 286.244 55.4485 286.07C55.4485 285.896 55.5174 285.729 55.6402 285.606C55.763 285.483 55.9296 285.413 56.1035 285.413H463.438C463.612 285.413 463.779 285.483 463.901 285.606C464.024 285.729 464.093 285.896 464.093 286.07C464.093 286.244 464.024 286.411 463.901 286.534C463.779 286.657 463.612 286.726 463.438 286.727Z" fill="#3F3D56"/>
<path d="M258.759 226.504H187.034C186.09 226.509 185.182 226.139 184.51 225.476C183.837 224.812 183.456 223.909 183.448 222.964V62.8558C183.456 61.9111 183.837 61.0079 184.51 60.3443C185.182 59.6807 186.09 59.3109 187.034 59.316H258.759C259.703 59.3109 260.611 59.6807 261.284 60.3443C261.956 61.0079 262.338 61.9111 262.345 62.8558V222.964C262.338 223.909 261.956 224.812 261.284 225.476C260.611 226.139 259.703 226.509 258.759 226.504Z" fill="white"/>
<path d="M262.345 111.122H183.448V112.226H262.345V111.122Z" fill="#CCCCCC"/>
<path d="M262.621 174.085H183.724V175.189H262.621V174.085Z" fill="#CCCCCC"/>
<path d="M209.379 59.3159H208.276V227.056H209.379V59.3159Z" fill="#CCCCCC"/>
<path d="M236.966 59.3159H235.862V227.056H236.966V59.3159Z" fill="#CCCCCC"/>
</g>
<defs>
<clipPath id="clip0_2_5">
<rect width="480" height="287" fill="white"/>
</clipPath>
</defs>
</svg>
