<svg width="313" height="345" viewBox="0 0 313 345" fill="none" xmlns="http://www.w3.org/2000/svg">
<g clip-path="url(#clip0_2_31)">
<path d="M208.034 171.783C209.481 177.57 207.546 183 203.711 183.911C199.877 184.823 195.598 180.87 194.151 175.081C193.54 172.776 193.513 170.36 194.071 168.035L188.263 143.438L200.336 140.981L204.78 165.49C206.373 167.304 207.489 169.462 208.034 171.783Z" fill="#FDADB0"/>
<path d="M157.418 312.429L158.162 328.55L157.417 333.011L160.024 338.216L180.509 340.446L181.626 330.781L170.825 325.205L170.511 316.096L157.418 312.429Z" fill="#FDADB0"/>
<path d="M179.019 336.729L177.902 338.216L156.449 332.045C156.449 332.045 157.417 341.562 157.417 343.42C157.417 345.279 192.8 345.279 198.124 344.536C203.448 343.792 201.738 338.959 201.738 338.959L179.659 328.527L179.019 336.729Z" fill="#2F2E43"/>
<path d="M104.049 300.562L99.5846 316.073L97.4485 320.062L98.2499 325.825L116.942 334.482L121.1 325.681L112.655 316.948L117.952 303.237L104.049 300.562Z" fill="#FDADB0"/>
<path d="M116.722 330.484L115.187 331.536L96.8414 318.837C96.8414 318.837 94.7071 328.162 94.1111 329.923C93.5152 331.684 127.037 342.986 132.319 343.982C137.602 344.979 137.532 339.854 137.532 339.854L119.958 322.918L116.722 330.484Z" fill="#2F2E43"/>
<path d="M158.862 46.2761L159.645 58.9549L135.925 60.1559L143.27 43.4514L158.862 46.2761Z" fill="#FDADB0"/>
<path d="M160.25 57.0584C153.892 59.8888 143.723 59.1144 132.199 57.0584L130.398 136.749C130.398 136.749 166.447 143.983 178.842 130.635L172.318 65.5229L160.25 57.0584Z" fill="#E0E1E2"/>
<path d="M174.928 132.588L124.035 137.609L98.9195 307.821H118.164L151.117 191.189L153.726 323.366H171.34L186.344 161.563L174.928 132.588Z" fill="#2F2E43"/>
<path d="M139.434 52.1751L122.335 62.2749C115.857 66.101 112.804 73.8245 114.919 81.0346L128.134 126.087C128.134 126.087 106.614 162.988 113.607 166.244C129.321 173.56 152.77 171.779 152.77 171.779L147.529 83.4288L139.434 52.1751Z" fill="#3F3D58"/>
<path d="M159.507 56.7234L178.842 64.2207L183.408 119.891L196.196 164.739C174.536 172.631 176.558 168.954 176.558 168.954L172.971 91.5678L159.507 56.7234Z" fill="#3F3D58"/>
<path d="M187.752 163.791L187.686 163.486L167.922 72.2478C167.369 69.6985 168.076 67.1431 169.859 65.2365C171.642 63.3296 174.149 62.4514 176.735 62.8268C179.925 63.2897 182.479 65.6089 183.241 68.7355L204.949 157.8L187.752 163.791Z" fill="#3F3D58"/>
<path d="M148.57 49.6444C159.198 49.6444 167.814 41.0449 167.814 30.4367C167.814 19.8286 159.198 11.229 148.57 11.229C137.942 11.229 129.326 19.8286 129.326 30.4367C129.326 41.0449 137.942 49.6444 148.57 49.6444Z" fill="#FDADB0"/>
<path d="M157.726 5.5516C161.964 7.03859 164.39 7.88947 166.612 10.0259C170.364 13.6345 170.984 18.457 171.559 22.9379C172.01 26.4433 172.592 30.9756 170.535 36.1538C169.833 37.9209 166.429 45.7941 159.912 46.7891C158.633 46.9845 155.628 47.0358 156.494 46.3977C164.509 40.4916 167.929 36.9261 167.649 27.8239C167.475 22.1682 158.816 16.0619 153.675 14.9642C151.509 14.5019 148.626 14.9242 146.558 16.6184C142.237 20.1591 142.422 34.8004 137.865 37.861C135.992 39.1197 137.24 30.2595 135.92 31.6963C133.315 34.5314 134.986 38.8731 135.454 40.5266C137.675 48.3695 141.861 49.1371 144.03 55.8345C146.372 63.0653 143.425 69.8731 142.726 71.4874C141.51 74.2957 139.423 79.1153 134.657 81.4275C128.606 84.3624 123.837 80.5406 121.024 83.817C119.451 85.6487 120.302 87.5885 117.462 93.2856C116.534 95.1453 116.071 96.0752 115.66 96.0422C113.718 95.8862 110.574 80.3696 115.66 65.9191C117.794 59.8547 119.885 53.9132 125.49 49.2671C128.453 46.8109 130.938 45.927 131.645 43.0585C132.656 38.9606 128.46 37.2116 127.618 30.7457C127.043 26.3237 126.64 19.9994 128.204 15.9458C129.681 12.1179 130.963 8.79494 134.32 5.78208C135.126 5.05842 141.633 0.139454 148.533 0.000698542C151.709 -0.0630882 154.043 4.25968 157.726 5.5516Z" fill="#2F2E43"/>
<path d="M198.389 173.34C224.383 173.34 245.456 152.307 245.456 126.361C245.456 100.415 224.383 79.3817 198.389 79.3817C172.394 79.3817 151.321 100.415 151.321 126.361C151.321 152.307 172.394 173.34 198.389 173.34Z" fill="#FF8900"/>
<path d="M186.479 157.011C189.336 146.724 192.193 136.436 195.051 126.149C195.659 123.959 196.13 121.526 197.522 119.667C198.598 118.231 200.291 117.29 202.083 117.881C206.356 119.29 206.286 125.443 206.211 129.033C206.096 134.452 204.87 139.859 202.614 144.792C202.305 145.468 202.421 146.275 203.11 146.677C203.703 147.023 204.687 146.863 204.998 146.182C207.257 141.243 208.6 135.956 208.912 130.532C209.182 125.851 209.202 119.678 205.137 116.488C203.151 114.929 200.615 114.466 198.286 115.543C195.984 116.608 194.579 118.814 193.695 121.097C192.712 123.635 192.127 126.358 191.399 128.977L189.055 137.418C187.309 143.705 185.563 149.992 183.817 156.278C183.341 157.99 186.004 158.72 186.479 157.011Z" fill="white"/>
<path d="M198.721 142.684C200.489 136.06 201.392 129.21 201.4 122.355C201.401 120.582 198.641 120.579 198.639 122.355C198.631 128.978 197.767 135.552 196.058 141.951C195.601 143.667 198.263 144.398 198.721 142.684Z" fill="white"/>
<path d="M170.338 142.604C172.189 133.7 174.191 124.767 176.759 116.038C178.842 108.959 182.432 100.938 190.01 98.3719C193.774 97.0973 197.853 97.3026 201.705 98.0422C205.525 98.7756 209.394 99.8671 212.914 101.536C216.247 103.117 219.33 105.295 221.524 108.296C223.689 111.258 225.038 114.695 225.765 118.275C227.452 126.582 225.466 135.068 223.242 143.075C222.946 144.14 222.643 145.204 222.34 146.268C221.853 147.977 224.516 148.706 225.002 147C227.461 138.368 230.014 129.351 228.869 120.291C228.373 116.373 227.272 112.524 225.31 109.076C223.299 105.542 220.398 102.654 216.92 100.554C213.412 98.4372 209.463 97.0893 205.509 96.0777C201.309 95.0032 196.939 94.3418 192.613 94.9422C188.534 95.5084 184.859 97.4387 181.971 100.353C179.012 103.339 177.011 107.07 175.534 110.969C173.906 115.269 172.842 119.786 171.722 124.238C170.538 128.944 169.433 133.669 168.409 138.411C168.16 139.564 167.916 140.717 167.676 141.871C167.525 142.599 167.889 143.36 168.64 143.566C169.324 143.754 170.186 143.336 170.338 142.604Z" fill="white"/>
<path d="M184.567 114.119C186.72 107.598 193.653 103.561 200.365 104.009C207.806 104.505 214.255 109.928 216.867 116.753C218.419 120.808 218.874 125.271 218.222 129.562C218.11 130.297 218.407 131.044 219.186 131.257C219.839 131.436 220.772 131.035 220.884 130.295C222.188 121.718 219.791 112.373 213.029 106.573C209.858 103.853 205.974 101.971 201.816 101.407C197.818 100.865 193.787 101.604 190.247 103.547C186.364 105.678 183.297 109.171 181.905 113.386C181.348 115.074 184.013 115.798 184.567 114.119Z" fill="white"/>
<path d="M178.693 126.757C178.1 133.825 176.315 140.815 173.427 147.298C173.125 147.978 173.229 148.779 173.923 149.183C174.511 149.527 175.507 149.373 175.811 148.689C178.911 141.731 180.817 134.347 181.454 126.757C181.516 126.014 180.775 125.379 180.073 125.379C179.275 125.379 178.756 126.012 178.693 126.757Z" fill="white"/>
<path d="M212.041 134.647C211.448 141.716 209.663 148.706 206.776 155.189C206.473 155.868 206.578 156.669 207.271 157.074C207.859 157.417 208.855 157.263 209.159 156.58C212.259 149.621 214.165 142.238 214.802 134.647C214.864 133.905 214.123 133.269 213.422 133.269C212.623 133.269 212.104 133.902 212.041 134.647Z" fill="white"/>
<path d="M185.639 129.163C187.415 122.137 190.356 115.478 194.347 109.425C195.326 107.939 192.936 106.557 191.963 108.034C187.852 114.269 184.806 121.194 182.977 128.431C182.543 130.151 185.205 130.884 185.639 129.163Z" fill="white"/>
<path d="M0 344C0 344.555 0.226741 345 0.509094 345H312.491C312.773 345 313 344.555 313 344C313 343.445 312.773 343 312.491 343H0.509094C0.226741 343 0 343.445 0 344Z" fill="#3F3D58"/>
<path d="M158.66 116.78C164.603 116.156 169.721 118.825 170.091 122.742C170.461 126.658 165.943 130.338 159.998 130.961C157.627 131.244 155.226 130.935 152.997 130.059L127.785 132.374L127.028 120.099L151.963 119.12C153.985 117.798 156.281 116.996 158.66 116.78Z" fill="#FDADB0"/>
<path d="M127.943 62.8573C121.84 61.9993 116.114 66.0045 114.846 72.0242C110.42 93.0261 102.479 137.763 114.952 138.51C131.261 139.486 146.917 135.58 146.917 135.58L143.003 113.116L130.282 111.814L137.765 76.8802C139.186 70.2472 134.672 63.8033 127.943 62.8573Z" fill="#3F3D58"/>
</g>
<defs>
<clipPath id="clip0_2_31">
<rect width="313" height="345" fill="white"/>
</clipPath>
</defs>
</svg>
